<?xml version="1.0" encoding="UTF-8" standalone="no"?>
<!-- Created with Inkscape (http://www.inkscape.org/) -->

<svg
   width="44.185425mm"
   height="11.377083mm"
   viewBox="0 0 44.185425 11.377083"
   version="1.1"
   id="svg5"
   xml:space="preserve"
   sodipodi:docname="arturia.svg"
   xmlns:inkscape="http://www.inkscape.org/namespaces/inkscape"
   xmlns:sodipodi="http://sodipodi.sourceforge.net/DTD/sodipodi-0.dtd"
   xmlns="http://www.w3.org/2000/svg"
   xmlns:svg="http://www.w3.org/2000/svg"><sodipodi:namedview
     id="namedview7"
     pagecolor="#ffffff"
     bordercolor="#000000"
     borderopacity="0.25"
     inkscape:showpageshadow="2"
     inkscape:pageopacity="0.0"
     inkscape:pagecheckerboard="0"
     inkscape:deskcolor="#d1d1d1"
     inkscape:document-units="mm"
     showgrid="false"
     inkscape:zoom="2.0510461"
     inkscape:cx="-156.74928"
     inkscape:cy="364.44816"
     inkscape:window-width="1920"
     inkscape:window-height="1001"
     inkscape:window-x="-9"
     inkscape:window-y="-9"
     inkscape:window-maximized="1"
     inkscape:current-layer="layer1" /><defs
     id="defs2" /><g
     inkscape:label="Capa 1"
     inkscape:groupmode="layer"
     id="layer1"
     transform="translate(118.60948,-52.615031)"><text
       xml:space="preserve"
       style="font-size:5.24799px;font-family:Bahnschrift;-inkscape-font-specification:Bahnschrift;fill:#000000;fill-opacity:1;stroke:none;stroke-width:0.264999;stroke-linecap:round;stroke-linejoin:round;stroke-miterlimit:17.1;stroke-opacity:0.835095;paint-order:stroke fill markers"
       x="-106.58601"
       y="58.119286"
       id="text375"
       transform="scale(0.98860712,1.0115242)"><tspan
         sodipodi:role="line"
         id="tspan373"
         style="font-style:normal;font-variant:normal;font-weight:bold;font-stretch:normal;font-size:5.24799px;font-family:'JetBrains Mono';-inkscape-font-specification:'JetBrains Mono, Bold';font-variant-ligatures:normal;font-variant-caps:normal;font-variant-numeric:normal;font-variant-east-asian:normal;fill:#000000;fill-opacity:1;stroke:none;stroke-width:0.264999"
         x="-106.58601"
         y="58.119286">JUΛNROCCIΛ</tspan></text><text
       xml:space="preserve"
       style="font-size:2.07403px;font-family:Bahnschrift;-inkscape-font-specification:Bahnschrift;fill:#000000;fill-opacity:1;stroke:none;stroke-width:0.264999;stroke-linecap:round;stroke-linejoin:round;stroke-miterlimit:17.1;stroke-opacity:0.835095;paint-order:stroke fill markers"
       x="-100.99017"
       y="63.166512"
       id="text375-4"
       transform="scale(1.021961,0.97851096)"><tspan
         sodipodi:role="line"
         id="tspan373-2"
         style="font-style:normal;font-variant:normal;font-weight:300;font-stretch:normal;font-size:2.07403px;font-family:'JetBrains Mono';-inkscape-font-specification:'JetBrains Mono, Light';font-variant-ligatures:normal;font-variant-caps:normal;font-variant-numeric:normal;font-variant-east-asian:normal;fill:#000000;fill-opacity:1;stroke:none;stroke-width:0.265"
         x="-100.99017"
         y="63.166512">_The sound explorer</tspan></text><g
       id="g1125"
       transform="matrix(0.01157855,0,0,0.01157855,-74.448079,119.57041)"
       style="stroke-width:22.8512">
	<path
   d="m -3327.6781,-4881.9086 c -223.5526,0 -405.4426,-183.7 -405.4426,-409.6 0,-98.7 34.7353,-189.4 92.5284,-260.2 74.4185,-91.1 187.036,-149.2 312.7163,-149.2 223.5525,0 405.4424,183.7 405.4424,409.6 0,98.8 -34.8342,189.5 -92.6272,260.3 -74.3196,91 -186.937,149.1 -312.6173,149.1 m 486.1945,-409.6 c 0,-270.8 -218.1096,-491.2 -486.1945,-491.2 -175.9524,0 -330.4303,94.9 -415.8335,236.8 -44.7303,74.3 -70.5591,161.5 -70.5591,254.6 0,270.9 218.1097,491.2 486.1947,491.2 159.228,0 300.8409,-77.7 389.5098,-197.6 60.8609,-81.9 96.8826,-183.7 96.8826,-293.8"
   id="path1121"
   style="stroke-width:22.8512" />
	<path
   d="m -3328.3708,-5527.1086 c 11.5784,4.8 30.7768,67 46.1157,117 5.5418,18.1 11.4795,37.2 17.813,57 3.1667,9.8 6.3335,19.6 9.5002,29.3 -25.334,17.3 -49.5794,31 -72.8352,31 -23.4537,0 -47.6991,-13.4 -72.9341,-30.5 2.375,-7.1 4.6511,-14.2 7.0262,-21.4 6.7293,-20.7 12.9639,-40.9 18.8026,-59.9 16.2295,-52.3 36.3186,-117.3 46.5116,-122.5 m 173.9731,231.6 c 18.8026,-11.7 36.0218,-19.9 50.2721,-19.9 h 12.2712 v -81.7 h -12.2712 c -27.2142,0 -52.3503,9.8 -76.2988,23.3 -1.8802,-5.6 -3.6615,-11.1 -5.5418,-16.7 l -9.2033,-27.7 c -33.4488,-101.9 -65.1163,-198.1 -132.5086,-198.1 -67.3924,0 -99.0598,96.2 -132.5086,198.1 l -14.8441,44.7 c -23.9485,-13.7 -48.9856,-23.6 -76.1009,-23.6 h -12.2712 v 81.7 h 12.2712 c 13.8545,0 31.0737,8.4 49.8763,20.2 -26.1257,76.6 -54.1316,153.1 -67.7882,159.4 h -12.2712 v 96.7 h 12.2712 c 55.3191,0 100.8411,-92.5 142.0088,-206.8 31.2716,19.3 64.7204,35.2 99.4556,35.2 34.4384,0 67.8872,-16.1 99.2578,-35.6 42.1573,117.5 86.8876,207.2 142.1077,207.2 h 12.2712 v -83.2 l 0.8906,-12.3 h -12.2711 c -15.141,-5.9 -43.7407,-85.5 -69.0747,-160.9"
   id="path1123"
   style="stroke-width:22.8512" />
</g></g></svg>
