<?xml version="1.0" encoding="UTF-8" standalone="no"?>
<!-- Created with Inkscape (http://www.inkscape.org/) -->

<svg
   width="44.185432mm"
   height="11.377083mm"
   viewBox="0 0 44.185432 11.377083"
   version="1.1"
   id="svg5"
   xml:space="preserve"
   sodipodi:docname="arturia.svg"
   xmlns:inkscape="http://www.inkscape.org/namespaces/inkscape"
   xmlns:sodipodi="http://sodipodi.sourceforge.net/DTD/sodipodi-0.dtd"
   xmlns="http://www.w3.org/2000/svg"
   xmlns:svg="http://www.w3.org/2000/svg"><sodipodi:namedview
     id="namedview7"
     pagecolor="#ffffff"
     bordercolor="#000000"
     borderopacity="0.25"
     inkscape:showpageshadow="2"
     inkscape:pageopacity="0.0"
     inkscape:pagecheckerboard="0"
     inkscape:deskcolor="#d1d1d1"
     inkscape:document-units="mm"
     showgrid="false"
     inkscape:zoom="2.0510461"
     inkscape:cx="-156.74928"
     inkscape:cy="364.44816"
     inkscape:window-width="1920"
     inkscape:window-height="1001"
     inkscape:window-x="-9"
     inkscape:window-y="-9"
     inkscape:window-maximized="1"
     inkscape:current-layer="layer1" /><defs
     id="defs2" /><g
     inkscape:label="Capa 1"
     inkscape:groupmode="layer"
     id="layer1"
     transform="translate(118.97113,-67.454008)"><text
       xml:space="preserve"
       style="font-size:5.24799px;font-family:Bahnschrift;-inkscape-font-specification:Bahnschrift;fill:#ffffff;fill-opacity:1;stroke:none;stroke-width:0.264999;stroke-linecap:round;stroke-linejoin:round;stroke-miterlimit:17.1;stroke-opacity:0.835095;paint-order:stroke fill markers"
       x="-106.95182"
       y="72.789207"
       id="text375-3"
       transform="scale(0.9886071,1.0115242)"><tspan
         sodipodi:role="line"
         id="tspan373-3"
         style="font-style:normal;font-variant:normal;font-weight:bold;font-stretch:normal;font-size:5.24799px;font-family:'JetBrains Mono';-inkscape-font-specification:'JetBrains Mono, Bold';font-variant-ligatures:normal;font-variant-caps:normal;font-variant-numeric:normal;font-variant-east-asian:normal;fill:#ffffff;fill-opacity:1;stroke:none;stroke-width:0.264999"
         x="-106.95182"
         y="72.789207">JUΛNROCCIΛ</tspan></text><text
       xml:space="preserve"
       style="font-size:2.07403px;font-family:Bahnschrift;-inkscape-font-specification:Bahnschrift;fill:#ffffff;fill-opacity:1;stroke:none;stroke-width:0.264999;stroke-linecap:round;stroke-linejoin:round;stroke-miterlimit:17.1;stroke-opacity:0.835095;paint-order:stroke fill markers"
       x="-101.34403"
       y="78.331375"
       id="text375-4-0"
       transform="scale(1.021961,0.97851093)"><tspan
         sodipodi:role="line"
         id="tspan373-2-8"
         style="font-style:normal;font-variant:normal;font-weight:300;font-stretch:normal;font-size:2.07403px;font-family:'JetBrains Mono';-inkscape-font-specification:'JetBrains Mono, Light';font-variant-ligatures:normal;font-variant-caps:normal;font-variant-numeric:normal;font-variant-east-asian:normal;fill:#ffffff;fill-opacity:1;stroke:none;stroke-width:0.265"
         x="-101.34403"
         y="78.331375">_The sound explorer</tspan></text><path
       d="m -113.33941,77.883966 c -2.58841,0 -4.69443,-2.126979 -4.69443,-4.742574 0,-1.142803 0.40218,-2.192977 1.07134,-3.012739 0.86166,-1.054806 2.16561,-1.727519 3.6208,-1.727519 2.58842,0 4.69444,2.126979 4.69444,4.742574 0,1.143961 -0.40333,2.194135 -1.07249,3.013896 -0.86051,1.053648 -2.16446,1.726362 -3.61966,1.726362 m 5.62943,-4.742574 c 0,-3.135471 -2.52539,-5.687384 -5.62943,-5.687384 -2.03727,0 -3.8259,1.098805 -4.81474,2.741801 -0.51792,0.860286 -0.81698,1.869936 -0.81698,2.947899 0,3.136629 2.5254,5.687384 5.62943,5.687384 1.84363,0 3.4833,-0.899654 4.50996,-2.287922 0.70468,-0.948283 1.12176,-2.12698 1.12176,-3.401778"
       id="path1121-0"
       style="fill:#ffffff;stroke-width:0.264584" /><path
       d="m -113.34743,70.413486 c 0.13407,0.05558 0.35635,0.775763 0.53396,1.35469 0.0642,0.209572 0.13291,0.430722 0.20625,0.659977 0.0367,0.11347 0.0733,0.22694 0.10999,0.339252 -0.29333,0.200309 -0.57405,0.358935 -0.84332,0.358935 -0.27156,0 -0.55229,-0.155153 -0.84447,-0.353146 0.0275,-0.08221 0.0538,-0.164415 0.0814,-0.247781 0.0779,-0.239676 0.1501,-0.473562 0.21771,-0.693555 0.18791,-0.605558 0.42051,-1.358164 0.53853,-1.418372 m 2.01436,2.681592 c 0.21771,-0.135469 0.41708,-0.230413 0.58208,-0.230413 h 0.14208 v -0.945968 h -0.14208 c -0.3151,0 -0.60614,0.11347 -0.88343,0.26978 -0.0218,-0.06484 -0.0424,-0.128521 -0.0642,-0.193361 l -0.10656,-0.320726 c -0.38729,-1.179854 -0.75395,-2.293711 -1.53426,-2.293711 -0.7803,0 -1.14696,1.113857 -1.53425,2.293711 l -0.17188,0.517561 c -0.27728,-0.158626 -0.56718,-0.273254 -0.88113,-0.273254 h -0.14209 v 0.945968 h 0.14209 c 0.16041,0 0.35978,0.09726 0.57749,0.233886 -0.3025,0.886917 -0.62676,1.772676 -0.78489,1.845621 h -0.14208 v 1.119646 h 0.14208 c 0.64052,0 1.1676,-1.071016 1.64426,-2.394444 0.36208,0.223466 0.74937,0.407565 1.15155,0.407565 0.39875,0 0.78604,-0.186415 1.14926,-0.412196 0.48812,1.360479 1.00603,2.399075 1.6454,2.399075 h 0.14209 v -0.963335 l 0.0103,-0.142416 h -0.14208 c -0.17532,-0.06831 -0.50646,-0.989966 -0.79979,-1.862989"
       id="path1123-6"
       style="fill:#ffffff;stroke-width:0.264584" /></g></svg>
